<?xml version="1.0" encoding="UTF-8" standalone="no"?>
<!DOCTYPE svg PUBLIC "-//W3C//DTD SVG 1.1//EN" "http://www.w3.org/Graphics/SVG/1.1/DTD/svg11.dtd">
<svg width="100%" height="100%" viewBox="0 0 150 100" version="1.1" xmlns="http://www.w3.org/2000/svg" xmlns:xlink="http://www.w3.org/1999/xlink" xml:space="preserve" xmlns:serif="http://www.serif.com/" style="fill-rule:evenodd;clip-rule:evenodd;stroke-linejoin:round;stroke-miterlimit:2;">
    <g transform="matrix(1,0,0,0.650159,0,18.954)">
        <rect x="0" y="46.924" width="150" height="3.076" style="fill:rgb(8,0,255);"/>
    </g>
    <g transform="matrix(1,0,0,1,-3.93171,13.5279)">
        <path d="M71.182,-2.792C70.883,-2.069 70.53,-1.179 70.124,-0.121C69.825,0.902 69.34,2.418 68.67,4.428C67.665,7.02 66.069,10.794 63.882,15.748C61.643,20.791 60.039,24.556 59.069,27.042C58.346,28.893 57.667,30.374 57.032,31.485C56.204,32.949 54.943,33.68 53.25,33.68C52.245,33.68 51.337,33.407 50.526,32.86C49.574,32.226 49.062,31.388 48.992,30.348C48.181,28.32 47.669,26.663 47.458,25.376C46.682,21.602 45.607,15.933 44.231,8.369C43.085,11.913 41.851,15.096 40.528,17.917C38.554,22.149 37.258,25.473 36.64,27.888C36.799,28.276 36.878,28.69 36.878,29.131C36.878,30.224 36.394,31.115 35.424,31.803C34.577,32.384 33.643,32.675 32.62,32.675C31.333,32.675 30.266,32.349 29.42,31.697C28.503,30.974 28.027,29.986 27.992,28.735L27.172,25.64C26.59,22.889 25.638,18.781 24.315,13.315C23.152,9.136 21.203,3.185 18.47,-4.538C18.312,-4.979 18.232,-5.419 18.232,-5.86C18.232,-6.918 18.638,-7.756 19.449,-8.373C20.172,-8.937 21.045,-9.219 22.067,-9.219C23.407,-9.219 24.474,-8.655 25.268,-7.526C25.708,-6.909 26.211,-5.79 26.775,-4.168C28.503,0.805 30.451,8.052 32.62,17.573C34.031,14.135 35.468,10.079 36.931,5.407C38.113,1.598 39.074,-1.108 39.814,-2.713C41.578,-6.557 43.376,-8.479 45.21,-8.479C46.938,-8.479 48.198,-7.535 48.992,-5.649C49.38,-4.749 49.759,-3.118 50.129,-0.756C50.235,-0.033 50.464,1.739 50.817,4.561C51.187,7.593 52.298,13.112 54.149,21.117C56.018,16.744 58.531,10.441 61.687,2.207C61.881,1.713 62.34,0.091 63.063,-2.66C63.574,-4.635 64.217,-6.195 64.993,-7.341C65.84,-8.576 66.968,-9.193 68.379,-9.193C69.454,-9.193 70.345,-8.858 71.05,-8.188C71.755,-7.535 72.108,-6.689 72.108,-5.649C72.108,-5.278 71.799,-4.326 71.182,-2.792Z" style="fill:rgb(61,61,61);fill-rule:nonzero;"/>
        <path d="M102.55,-2.766C102.198,-2.766 101.827,-2.819 101.439,-2.924C98.583,-3.7 95.806,-4.088 93.108,-4.088C91.786,-4.088 90.366,-3.982 88.85,-3.771C87.334,-3.559 85.72,-3.242 84.01,-2.819C84.01,-0.474 83.93,3.009 83.772,7.629C84.759,7.558 88.206,7.232 94.113,6.65C97.481,6.315 99.614,6.147 100.514,6.147C101.554,6.147 102.444,6.482 103.185,7.152C103.926,7.805 104.296,8.678 104.296,9.771C104.296,11.869 103.176,13.059 100.937,13.341C99.526,13.447 97.419,13.624 94.616,13.87C92.112,14.153 88.339,14.496 83.296,14.902C83.172,17.141 83.111,18.949 83.111,20.324C83.111,23.78 83.313,25.746 83.719,26.222C83.913,26.451 85.024,26.566 87.051,26.566C88.145,26.566 89.793,26.539 91.997,26.486C94.201,26.433 95.85,26.407 96.943,26.407C97.296,26.407 97.816,26.354 98.504,26.248C99.191,26.143 99.703,26.09 100.038,26.09C101.06,26.09 101.933,26.381 102.656,26.962C103.485,27.615 103.899,28.532 103.899,29.713C103.899,31.688 102.868,32.869 100.805,33.257C99.041,33.592 95.383,33.76 89.829,33.76C84.08,33.76 80.333,32.984 78.588,31.432C76.666,29.722 75.705,26.019 75.705,20.324C75.705,17.961 75.872,14.417 76.208,9.692C76.56,4.948 76.736,1.404 76.736,-0.941C76.736,-1.558 76.648,-2.466 76.472,-3.665C76.296,-4.882 76.208,-5.798 76.208,-6.416C76.208,-9.096 77.442,-10.436 79.91,-10.436C80.686,-10.436 81.4,-10.215 82.053,-9.775C84.098,-10.286 86.038,-10.665 87.871,-10.912C89.723,-11.176 91.468,-11.309 93.108,-11.309C97.551,-11.309 101.104,-10.797 103.767,-9.775C105.389,-9.157 106.2,-8.038 106.2,-6.416C106.2,-5.499 105.883,-4.688 105.248,-3.982C104.543,-3.171 103.643,-2.766 102.55,-2.766Z" style="fill:rgb(61,61,61);fill-rule:nonzero;"/>
        <path d="M130.427,30.11C126.319,31.644 121.126,32.411 114.849,32.411C113.791,32.411 112.839,31.97 111.992,31.088C111.164,30.207 110.749,29.263 110.749,28.258L110.749,0.223C110.696,-0.976 110.652,-2.175 110.617,-3.374C110.564,-4.732 110.608,-5.878 110.749,-6.812C110.996,-8.47 112.539,-9.475 115.378,-9.827C116.718,-10.215 118.94,-10.409 122.043,-10.409C125.375,-10.409 128.567,-9.334 131.617,-7.183C135.197,-4.679 136.986,-1.549 136.986,2.207C136.986,4.234 136.616,5.945 135.875,7.338C135.294,8.466 134.28,9.674 132.834,10.961C134.544,11.79 136.061,13.042 137.383,14.717C138.882,16.586 139.631,18.446 139.631,20.297C139.631,22.643 138.353,24.864 135.796,26.962C134.086,28.355 132.296,29.405 130.427,30.11ZM122.043,-3.242C119.768,-3.242 118.402,-3.224 117.943,-3.189L117.97,2.418L117.943,7.972C119.548,8.166 120.756,8.228 121.567,8.158C126.962,7.734 129.66,5.751 129.66,2.207C129.66,0.955 128.867,-0.253 127.28,-1.417C125.64,-2.633 123.894,-3.242 122.043,-3.242ZM125.137,15.457C123.533,15.457 121.135,15.396 117.943,15.272L117.943,25.164C120.976,25.005 124.265,24.423 127.809,23.418C130.912,22.537 132.446,21.585 132.411,20.562C132.358,19.204 131.362,17.996 129.422,16.938C127.906,16.092 126.477,15.598 125.137,15.457Z" style="fill:rgb(61,61,61);fill-rule:nonzero;"/>
    </g>
    <g transform="matrix(1,0,0,1,4.91781,-18.3028)">
        <path d="M8.203,87.406C8.041,87.406 7.643,87.372 7.006,87.306C6.949,88.635 6.921,90.819 6.921,93.857C6.921,94.36 6.745,94.792 6.394,95.153C6.043,95.514 5.597,95.694 5.055,95.694C4.514,95.694 4.063,95.514 3.702,95.153C3.351,94.792 3.175,94.36 3.175,93.857L3.175,89.884C3.175,88.412 3.27,86.233 3.46,83.347C3.641,80.413 3.736,78.225 3.745,76.781C3.755,74.313 4.448,73.131 5.824,73.235C6.147,73.15 6.593,73.088 7.163,73.05C7.733,73.003 8.426,72.979 9.242,72.979C11.103,72.979 12.85,73.582 14.483,74.788C16.297,76.136 17.203,77.778 17.203,79.715C17.203,82.146 16.24,84.078 14.312,85.511C12.603,86.774 10.567,87.406 8.203,87.406ZM8.915,76.653C8.611,76.653 8.34,76.658 8.103,76.667C7.875,76.667 7.681,76.677 7.519,76.696C7.519,77.142 7.514,77.812 7.505,78.704C7.486,79.758 7.396,81.4 7.234,83.632C7.718,83.708 8.041,83.745 8.203,83.745C9.684,83.745 10.913,83.394 11.891,82.692C12.936,81.942 13.458,80.949 13.458,79.715C13.458,78.908 12.969,78.191 11.991,77.565C11.051,76.957 10.026,76.653 8.915,76.653Z" style="fill:rgb(61,61,61);fill-rule:nonzero;"/>
        <path d="M31.246,85.084C31.16,86.537 30.5,87.263 29.266,87.263C28.07,87.263 27.472,86.646 27.472,85.412L27.4,83.973C25.264,84.315 23.735,85.412 22.815,87.263L22.829,94.427C22.829,94.968 22.644,95.414 22.273,95.765C21.903,96.126 21.433,96.307 20.863,96.307C20.275,96.307 19.819,96.117 19.496,95.737C19.192,95.395 19.041,94.958 19.041,94.427L19.041,85.098C19.041,84.804 19.05,84.367 19.069,83.788C19.088,83.2 19.097,82.758 19.097,82.464C19.097,81.932 19.254,81.491 19.567,81.139C19.89,80.778 20.346,80.598 20.935,80.598C21.989,80.598 22.615,81.139 22.815,82.222C24.495,80.968 26.361,80.342 28.411,80.342C30.31,80.342 31.26,81.605 31.26,84.13C31.26,84.614 31.255,84.932 31.246,85.084Z" style="fill:rgb(61,61,61);fill-rule:nonzero;"/>
        <path d="M39.192,96.193C37.436,96.193 35.926,95.59 34.663,94.384C33.277,93.064 32.551,91.303 32.485,89.1C32.418,87.002 32.992,85.132 34.208,83.489C35.651,81.552 37.659,80.584 40.232,80.584C42.131,80.584 43.64,81.343 44.761,82.863C45.767,84.23 46.27,85.924 46.27,87.947C46.27,90.149 45.682,92.029 44.504,93.586C43.185,95.324 41.414,96.193 39.192,96.193ZM40.047,84.344C38.879,84.334 37.958,84.866 37.284,85.939C36.714,86.841 36.429,87.895 36.429,89.1C36.429,90.24 36.752,91.113 37.398,91.721C37.911,92.205 38.509,92.447 39.192,92.447C40.018,92.447 40.735,92.167 41.343,91.607C42.036,90.952 42.406,90.064 42.454,88.944C42.577,85.886 41.775,84.353 40.047,84.344Z" style="fill:rgb(61,61,61);fill-rule:nonzero;"/>
        <path d="M58.717,83.888C58.518,83.888 58.281,83.883 58.005,83.874C57.74,83.855 57.507,83.845 57.308,83.845C56.918,83.845 56.467,83.883 55.955,83.959C56.125,87.795 56.211,90.301 56.211,91.479C56.211,91.602 56.216,91.835 56.225,92.176C56.235,92.509 56.239,92.779 56.239,92.988C56.239,95.172 55.551,96.264 54.174,96.264C53.652,96.264 53.201,96.102 52.821,95.78C52.404,95.438 52.195,95.011 52.195,94.498C52.195,94.156 52.209,93.643 52.238,92.96C52.266,92.276 52.28,91.763 52.28,91.422C52.28,90.273 52.195,87.814 52.024,84.045C51.435,84.016 50.543,83.94 49.347,83.817C48.16,83.684 47.566,83.067 47.566,81.965C47.566,81.434 47.747,80.983 48.107,80.612C48.468,80.242 48.934,80.057 49.503,80.057C49.854,80.057 50.661,80.114 51.924,80.228C51.915,79.924 51.891,79.421 51.853,78.718C51.815,78.111 51.796,77.641 51.796,77.308C51.796,76.777 51.991,76.335 52.38,75.984C52.769,75.633 53.239,75.457 53.79,75.457C55.195,75.457 55.898,76.639 55.898,79.003L55.869,80.171C56.458,80.085 56.937,80.043 57.308,80.043C58.399,80.043 59.145,80.114 59.543,80.256C60.303,80.522 60.683,81.101 60.683,81.994C60.683,82.535 60.498,82.986 60.127,83.347C59.757,83.708 59.287,83.888 58.717,83.888Z" style="fill:rgb(61,61,61);fill-rule:nonzero;"/>
        <path d="M68.274,96.193C66.517,96.193 65.007,95.59 63.745,94.384C62.359,93.064 61.632,91.303 61.566,89.1C61.499,87.002 62.074,85.132 63.289,83.489C64.732,81.552 66.74,80.584 69.313,80.584C71.212,80.584 72.722,81.343 73.842,82.863C74.848,84.23 75.352,85.924 75.352,87.947C75.352,90.149 74.763,92.029 73.586,93.586C72.266,95.324 70.495,96.193 68.274,96.193ZM69.128,84.344C67.96,84.334 67.039,84.866 66.365,85.939C65.795,86.841 65.511,87.895 65.511,89.1C65.511,90.24 65.833,91.113 66.479,91.721C66.992,92.205 67.59,92.447 68.274,92.447C69.1,92.447 69.816,92.167 70.424,91.607C71.117,90.952 71.487,90.064 71.535,88.944C71.658,85.886 70.856,84.353 69.128,84.344Z" style="fill:rgb(61,61,61);fill-rule:nonzero;"/>
        <path d="M87.799,83.888C87.599,83.888 87.362,83.883 87.087,83.874C86.821,83.855 86.588,83.845 86.389,83.845C85.999,83.845 85.548,83.883 85.036,83.959C85.207,87.795 85.292,90.301 85.292,91.479C85.292,91.602 85.297,91.835 85.306,92.176C85.316,92.509 85.321,92.779 85.321,92.988C85.321,95.172 84.632,96.264 83.256,96.264C82.733,96.264 82.282,96.102 81.903,95.78C81.485,95.438 81.276,95.011 81.276,94.498C81.276,94.156 81.29,93.643 81.319,92.96C81.347,92.276 81.361,91.763 81.361,91.422C81.361,90.273 81.276,87.814 81.105,84.045C80.516,84.016 79.624,83.94 78.428,83.817C77.241,83.684 76.648,83.067 76.648,81.965C76.648,81.434 76.828,80.983 77.189,80.612C77.549,80.242 78.015,80.057 78.584,80.057C78.936,80.057 79.743,80.114 81.005,80.228C80.996,79.924 80.972,79.421 80.934,78.718C80.896,78.111 80.877,77.641 80.877,77.308C80.877,76.777 81.072,76.335 81.461,75.984C81.85,75.633 82.32,75.457 82.871,75.457C84.276,75.457 84.979,76.639 84.979,79.003L84.95,80.171C85.539,80.085 86.018,80.043 86.389,80.043C87.481,80.043 88.226,80.114 88.625,80.256C89.384,80.522 89.764,81.101 89.764,81.994C89.764,82.535 89.579,82.986 89.209,83.347C88.838,83.708 88.368,83.888 87.799,83.888Z" style="fill:rgb(61,61,61);fill-rule:nonzero;"/>
        <path d="M105.643,83.318C104.608,85.473 102.971,88.858 100.73,93.472C99.515,95.95 98.589,98.006 97.953,99.639C97.753,100.228 97.44,101.101 97.013,102.259C96.671,103.152 96.063,103.598 95.19,103.598C94.649,103.598 94.174,103.423 93.766,103.071C93.358,102.72 93.153,102.278 93.153,101.747C93.153,100.864 94.16,98.248 96.173,93.9C95.128,91.839 93.472,88.806 91.202,84.799C90.975,84.439 90.742,84.073 90.505,83.703C90.248,83.266 90.12,82.867 90.12,82.506C90.12,81.994 90.324,81.543 90.732,81.154C91.141,80.764 91.611,80.57 92.142,80.57C92.769,80.57 93.258,80.802 93.609,81.267C94.957,83.062 96.529,85.763 98.323,89.371C99.339,87.121 99.956,85.763 100.175,85.298C100.849,83.883 101.509,82.639 102.154,81.567C102.562,80.883 103.123,80.541 103.835,80.541C104.366,80.541 104.841,80.722 105.259,81.082C105.677,81.443 105.885,81.885 105.885,82.407C105.885,82.682 105.805,82.986 105.643,83.318Z" style="fill:rgb(61,61,61);fill-rule:nonzero;"/>
        <path d="M114.188,96.193C113.372,96.193 112.512,96.098 111.611,95.908L111.596,101.718C111.596,102.269 111.411,102.725 111.041,103.085C110.671,103.446 110.201,103.627 109.631,103.627C109.061,103.627 108.591,103.446 108.221,103.085C107.851,102.725 107.666,102.269 107.666,101.718C107.666,101.272 107.675,99.501 107.694,96.406C107.713,94.109 107.713,92.233 107.694,90.781C107.666,88.73 107.599,86.964 107.495,85.483C107.352,83.442 107.281,82.506 107.281,82.677C107.281,81.889 107.457,81.215 107.808,80.655C108.216,80.019 108.767,79.701 109.46,79.701C109.992,79.701 110.438,79.881 110.799,80.242C111.16,80.603 111.34,81.035 111.34,81.538L111.326,81.68C111.962,81.32 112.598,81.054 113.234,80.883C113.88,80.703 114.525,80.612 115.171,80.612C117.355,80.612 118.95,81.538 119.956,83.389C120.706,84.785 121.081,86.594 121.081,88.815C121.081,90.895 120.488,92.618 119.301,93.985C118.029,95.457 116.324,96.193 114.188,96.193ZM115.171,84.415C114.573,84.415 113.965,84.557 113.348,84.842C112.731,85.117 112.109,85.535 111.482,86.095C111.596,88.051 111.653,90.012 111.653,91.977C112.498,92.252 113.343,92.39 114.188,92.39C115.166,92.39 115.916,92.044 116.438,91.35C116.913,90.724 117.15,89.879 117.15,88.815C117.15,87.534 117.093,86.646 116.98,86.152C116.704,84.994 116.101,84.415 115.171,84.415Z" style="fill:rgb(61,61,61);fill-rule:nonzero;"/>
        <path d="M130.381,96.007C128.112,96.007 126.256,95.466 124.812,94.384C123.217,93.188 122.42,91.502 122.42,89.328C122.42,86.926 123.051,84.894 124.314,83.233C125.719,81.391 127.613,80.47 129.996,80.47C131.648,80.47 133.02,80.736 134.112,81.267C135.546,81.97 136.263,83.062 136.263,84.543C136.263,85.587 135.679,86.513 134.511,87.32C133.979,87.69 132.911,88.232 131.307,88.944L126.507,91.066C126.963,91.559 127.514,91.93 128.159,92.176C128.805,92.423 129.545,92.547 130.381,92.547C131.653,92.547 132.731,92.286 133.614,91.763C134.402,91.298 135.033,91.066 135.508,91.066C136.495,91.066 136.989,91.545 136.989,92.504C136.989,93.586 136.196,94.469 134.611,95.153C133.281,95.723 131.871,96.007 130.381,96.007ZM129.996,83.916C129.113,83.916 128.359,84.211 127.732,84.799C127.105,85.388 126.602,86.271 126.222,87.448C127.295,86.983 128.363,86.523 129.427,86.067C130.708,85.488 131.729,84.951 132.489,84.458C131.852,84.097 131.022,83.916 129.996,83.916Z" style="fill:rgb(61,61,61);fill-rule:nonzero;"/>
    </g>
</svg>
